<?xml version="1.0" encoding="utf-8"?>
<!-- Generator: Adobe Illustrator 26.0.2, SVG Export Plug-In . SVG Version: 6.00 Build 0)  -->
<svg version="1.1" id="Layer_1" xmlns="http://www.w3.org/2000/svg" xmlns:xlink="http://www.w3.org/1999/xlink" x="0px" y="0px"
	 viewBox="0 0 1000 1000" style="enable-background:new 0 0 1000 1000;" xml:space="preserve">
<style type="text/css">
	.st0{fill:url(#SVGID_1_);}
	.st1{fill:url(#SVGID_00000059310549323277901850000005540977243932801205_);}
	.st2{fill:#AB811A;}
</style>
<g>
	<linearGradient id="SVGID_1_" gradientUnits="userSpaceOnUse" x1="625.2338" y1="639.4957" x2="878.1706" y2="219.6463">
		<stop  offset="0" style="stop-color:#8A1C14"/>
		<stop  offset="0.3179" style="stop-color:#9A1D17"/>
		<stop  offset="0.519" style="stop-color:#A51D18"/>
		<stop  offset="0.7067" style="stop-color:#B11D19"/>
		<stop  offset="0.8631" style="stop-color:#BE1E1A"/>
		<stop  offset="1" style="stop-color:#D2221A"/>
	</linearGradient>
	<path class="st0" d="M973.8,432c-0.6-11.6-3.4-22.6-12.8-30.6c-1.5-1.2-3.1-3.4-4.8-2.9c-2,0.6-0.9,3.4-1.5,5.2
		c-0.5,1.4-0.4,2.9-0.7,4.3c-3.2,19.5-9.3,38.2-16.1,56.7c-3.8,7.9-7.5,15.9-11.5,23.7c-6.5,12.8-14.8,24.4-23.2,36
		c-0.6,0.6-1.2,1-1.8,1.7c-18.1,21.9-39.8,39.5-64.9,53c-45,24.2-92.9,33.1-143.5,27.5c-38.4-4.3-74-17.2-106.9-37.2
		c-11.3-6.8-22.9-13.3-32-23.2c-13.6-14.8-26.1-30.5-37.5-47.1c-4.1-7.6-8.5-15.1-11.1-23.4c-0.6-1.9-2.3-4.3-0.7-5.9
		c1.9-1.9,4,0.3,5.7,1.3c6.8,3.9,13.4,8.1,20.1,12.1c17.4,12.9,34.3,26.5,50.5,41c5.9,5.3,11.5,10.9,19.2,14
		c50.9,20.6,103.3,24.3,156.5,12.8c37.9-8.2,71.3-26.9,101-51.7c7.1-5.9,14.3-11.9,19.4-19.7c18.7-18.3,30.4-40.9,40-64.9
		c6.8-15.1,11.7-30.8,14.8-47.1c2.7-11.4,5.6-22.9,5-34.8c-0.1-2.7-0.1-5.4,1-7.9c0.1-0.5,0.2-0.9,0.2-1.4c0.5-1,0.5-2,0.2-3.1
		c0.5-11.2,0.5-22.3-1.5-33.4c-1.3-0.9-1.4-1.9-0.2-2.9c0-4.4-1-8.6-2-12.8c-2.3-15.4-7.2-30.1-13.4-44.3
		c-5.1-11.7-10.8-23.1-19-33.1c-1.6,1.7-0.8,2.9-0.3,4.3c3.4,10.5,5.7,21.3,7.6,32.3c2.3,13.5,2.7,27.2,3.7,40.8
		c-0.8,15.8-1.8,31.6-4.6,47.2c-3.3,15-7.9,29.7-13.2,44.1c-8.1,17.5-17.6,34.2-28.8,49.9c-9.2,11-18.3,22-28.9,31.8
		c-11.7,10.9-24.8,20.1-37.6,29.6c-1.4,0.8-2.9,1.6-4.2,2.4c-10.7,6.9-21.3,14.1-32.9,19.5c-33.9,15.9-69.7,22.3-107.1,19.1
		c-23.5-2-46.4-6.8-68.6-14.9c-15.1-5.5-29.2-13-42.8-21.4c-1.7-1.3-3.3-2.6-5-3.8c-7.5-5.7-15.2-11.2-21.1-18.7
		c-0.2-0.3-0.7-0.7-0.7-0.8c0.4-0.6,0.9-0.4,1.5-0.1c1.7,0.4,3.5,0.8,5.2,1.3c33,8.6,65.3,20.5,99.9,21.9
		c10.6,0.4,21.1,0.9,31.7-0.2c23-2.3,44.6-9.3,65.3-19.2c18.1-8.6,35.3-18.8,51-31.3c12.2-8.5,22.7-18.8,32.9-29.6
		c7.6-8,14.4-16.6,19.8-26.2c0.9,0,1.5-0.4,2-1.1c10.9-16.4,20.3-33.5,26.3-52.3c7.2-18.6,11.1-38,12.9-57.8
		c1.4-6,0.8-12.1,1.3-18.1l-0.2-0.1l0.2-0.1c1-36-3.1-70.9-18.9-103.9c-16.8-35.2-38.7-66.2-70.4-89.5c-4.6-3.4-9.1-7.2-14.4-9.6
		c-1.2-0.5-2.4-0.9-3.6-1.3c0.8,1.2,1.5,2.4,2.4,3.4c21.7,27,38,57,48.9,89.9c9.8,29.6,13.9,59.9,12,91c-0.8,12.9-3.4,25.5-5.3,38.2
		c-5.2,18.8-11.7,37.1-20.3,54.7c-2.1,3.7-4.1,7.4-6.1,11.1c-8.1,14.8-18.1,28.3-27.8,42c-8.3,9.7-17.1,18.7-27,26.8
		c-13.8,11.3-29.2,20-45.1,28c-0.5,0.1-1,0.1-1.4,0.3c-29.8,12.9-60.9,19-93.3,18.8c-18.3-0.1-36.5-0.6-54.2-6
		c-9.4-2.9-19.2-3.7-29.1-2.8c-15.6,1.4-24.9,10.1-26.7,25.6c-1.6,13.6,2.3,26.5,6.5,39.2c2.5,9.4,6.5,18.2,11.3,26.5
		c32.8,57,78.8,99.4,140,124c43.7,17.5,88.9,21.1,134.3,8c52.9-15.3,99.2-41.7,134.1-85.6c10.5-13.2,20.5-26.6,28.5-41.5
		c0.3-0.4,0.5-0.9,0.7-1.3c0.4-0.6,0.7-1.3,1.1-1.9c7.2-11.2,12.9-23.2,17-35.8c2.2-6.8,5.8-13.1,7.3-20.2c-1.1-0.9-0.6-1.5,0.5-1.9
		c0.8-0.8,0.8-1.8,0.8-2.9C972.9,454.7,974.3,443.4,973.8,432z"/>
	
		<linearGradient id="SVGID_00000098935493976262613450000016441185018199335609_" gradientUnits="userSpaceOnUse" x1="171.1676" y1="746.6052" x2="778.1764" y2="489.2845">
		<stop  offset="0" style="stop-color:#CDAA39"/>
		<stop  offset="0.1777" style="stop-color:#C6A131"/>
		<stop  offset="0.3558" style="stop-color:#C6A131"/>
		<stop  offset="0.5736" style="stop-color:#BC9428"/>
		<stop  offset="0.6869" style="stop-color:#B48A2C"/>
		<stop  offset="0.891" style="stop-color:#AE831E"/>
	</linearGradient>
	<path style="fill:url(#SVGID_00000098935493976262613450000016441185018199335609_);" d="M983,554.2c-2.5-5.1-5-5.3-8.3-0.8
		c-0.9,1.2-1.8,2.4-2.6,3.5c-8,10.7-17.2,20.4-26.2,30.3c-3.4,3.2-6.9,6.4-10.3,9.7c-9.6,9.1-20.1,17-30.2,25.5
		c-1.2,0.3-2.2,0.9-2.9,2c-1.1,0.2-1.9,0.9-2.4,1.8c-13.5,8.9-27.5,17.1-41.8,24.6c-4,1.7-8.1,3.4-12.1,5.2
		c-14.2,6.2-28.9,10.6-43.8,14.5c-5.2,0.9-10.4,1.8-15.7,2.8c-0.7-0.4-1.4-0.3-2,0.3c-2-0.3-4-0.2-5.9,0.4c-2-0.3-4-0.4-5.9,0.5
		c-4.3,0-8.5-0.1-12.8-0.1c-1-0.8-2-0.6-2.9,0.1c-14.1,0.5-28.2,0.4-42.2,0c-1.6-0.9-3.2-0.9-4.9-0.5c-6.2-0.8-12.4-1.6-18.6-2.4
		c-0.9-0.6-1.9-0.9-3-0.7c-0.6-0.1-1.3-0.2-1.9-0.3c-15.3-3.4-30.5-7.1-45.2-12.6c-14.5-4.2-27.8-11.2-41.2-18
		c-13.1-6.6-25.4-14.5-37.6-22.6c-13.8-10.8-27.5-21.6-41.3-32.4c-10.3-9.7-20.7-19.4-31-29.2c-7.4-7.9-14.8-15.8-22.1-23.7
		c-0.5-0.8-0.9-1.7-1.6-2.4c-13.4-15.4-26.1-31.3-38.6-47.4c-7.4-9.5-13.8-19.8-22.1-28.6c-1.6-1.7-3.4-3.7-5.8-2.5
		c-2.5,1.2-2.3,4.2-2.4,6.5c0,1.6,0.6,3.2,1,4.8c3.5,14.3,8.6,28.1,14.5,41.6c4.2,9.7,8.4,19.4,14.4,28.3c4.5,9,9.7,17.5,15.9,25.5
		c6.4,9.9,13.2,19.5,21.8,27.8c8.2,10.6,17.7,20,28.1,28.4c0.9,0.9,1.7,2,2.7,2.8c13,10.7,26.3,20.9,40.8,29.6
		c9.2,5.5,18.4,11.1,28.3,15.3c9.7,5.2,19.8,9.7,30.4,13c28.2,10.9,57.4,17.7,87.4,21.4c0.9,0.6,1.9,0.8,2.9,0.3
		c0.5,0.1,1,0.1,1.5,0.1c0.2,0.6,0.4,1.2,0.6,1.8c-3,0-6.1,0-9.1,0c-1.6-0.6-3.2-0.6-4.8-0.1c-4.3-0.3-8.6-0.6-12.8-0.8
		c-0.9-0.7-1.9-0.7-2.9-0.2c-2.3-0.3-4.6-0.5-6.9-0.8c-0.6-0.5-1.2-0.5-1.9-0.2c-18.5-2.9-36.8-6.7-54.9-11.8
		c-6.9-2.5-13.8-4.9-20.7-7.4c-16.3-6-31.6-14-46.9-22.1c-16.7-10.8-33-22.2-48-35.3c-11.5-10.8-22.3-22.3-32.7-34.2
		c-6.5-8.9-12.9-17.7-19.4-26.6c-5.1-8.6-10.2-17.1-15.3-25.7c-4-7.8-6.4-16.5-12.7-22.9c-5-5.1-8.7-4.2-11.2,2.5
		c-2.8,7.4-2.9,15-1.4,22.6c0.5,8.7,2.4,17.2,5,25.5c1.6,8.5,4.4,16.6,7.9,24.5c3.8,11.9,8.8,23.3,14.5,34.4
		c1.2,4.5,4.9,8.1,5.4,13.8c-8-4.2-15.2-7.9-22.4-11.7c-12.4-7.3-25.5-13.2-38.6-18.9c-17.9-7.9-36-15.4-55-20.5
		c-10.4-4.4-21.4-6.9-32.3-9.5c-29.5-7-59.4-10.6-89.8-8.1c-6.7,0.6-6.7,0.6-6.3-5.1c2.9-5.6,5.9-11,10.8-15.3
		c4.6-4.1,10.3-5.6,15.6-8.1c12.5-3,25.1-3.1,37.9-2.4c9.9,0.6,19.2,3.2,28.8,5c13.9,4.8,27.6,10.1,40.7,16.7
		c6.7,3.3,13.4,6.6,20.1,10c0.9,0.7,1.8,1.4,2.8,2c16.1,9.3,31.8,19.1,46.9,29.8c2.4,1.7,4.8,3.4,7.4,4.8c2.1,1.1,4.5,1.4,6.5-0.1
		c2.1-1.5,1.9-3.9,1.5-6.2c-0.4-2.8-1.6-5.3-3-7.7c-7.3-12.2-18.5-19.9-30.6-26.6c-4.4-3.7-9.7-6-14.6-8.8
		c-12-6.8-24.4-13-37.4-17.7c-10.1-5.1-20.9-8.4-31.7-11.5c-23.5-6.8-47.4-10.8-72-7.1c-13.5,2.1-25.8,6.7-35.6,16.7
		c-8.8,7.1-15.4,16-20.2,26.3c-2.2,6.6-7.4,8.3-13.8,9.3c-17,2.9-34,6.3-50.5,11.4c-9.2,1.7-18.1,4.4-26.9,7.4
		c-11.6,3.9-23.3,7.8-33.5,14.8c-3.1,2.1-6.1,4.5-7.4,8.2c-0.6,1.6-0.6,3.4,0.4,4.7c1.1,1.5,2.8,0.3,4.1-0.1c18-4.9,36-9.2,54.3-13
		c8.6-1.8,17.2-3.5,25.8-4.8c9-1.4,18.3-1.9,27.5-2.5c2,0.6,3.9,0.7,5.8-0.1c1.7,0,3.3,0,5,0c1.1,0.3,2.3,0.6,3.4,0.9
		c-0.2,1.7-0.1,3.4,0.5,5.1c-0.4,0.7-0.5,1.3,0.2,1.9c0.5,8.7,2.9,16.8,6.6,24.6c3.4,10.3,8.9,19.3,15.8,27.6
		c6.7,9.7,14.9,17.9,24.5,24.6c1.4,1.2,2.6,2.4,4.1,3.5c21,15.7,44.7,26,69.6,33.4c38.8,11.5,78.4,16.8,119,15.1
		c19-0.8,37.9-1.5,56.5-5c5.5-1,10.9-2.4,15.8-5.1c5.5-3.1,6.2-6.1,2.4-11c-5.4-7-11.2-13.6-17.9-19.3
		c-10.7-11.2-22.6-20.8-35.4-29.5c-9.3-7.5-19.5-13.6-29.9-19.5c-15.6-9-31.4-17.5-48.2-23.8c-1.4-0.7-2.8-1.6-4.3-2.2
		c-34.2-14.4-69.6-24.6-105.8-32c1.4-2.1,3.6-1.2,5.4-1.2c12.4,0.1,24.5,2.9,36.6,4.7c3.3,0.9,6.5,2.1,10.1,1.9c0.7,1,1.6,1.2,2.7,1
		c1.7,0.5,3.4,1.1,5.1,1.6c14.7,4.3,29.4,8.4,43.6,13.9c17,6.5,33.7,13.9,50.4,21.3c14.4,7.5,28.8,15,43.2,22.5
		c4.2,2.8,8.4,5.4,12.5,8.3c12.5,8.7,24.4,18.2,37.5,26.1c14.9,11,30.7,20.5,46.6,29.8c12.7,7.4,25.6,14.3,39.7,18.8
		c4.5,1.4,9.1,2.8,13.9,1.8c2.3-0.5,4.6-1.2,5.5-3.5c1-2.6-1.2-4.2-2.8-5.7c-5.1-4.9-11.1-8.8-17.6-11.4
		c-21-8.4-40.4-19.6-58.8-32.7c-12.5-10.3-24.4-21.3-35.1-33.4c-7.2-9.6-14.7-19-20.7-29.4c-2.8-7.6-8-14.1-10.1-22.8
		c2.6,0.9,3.4,2.4,4.4,3.6c7.3,8.5,14.3,17.3,23,24.5c12.2,12.8,25.6,24.2,40.2,34.1c15.2,11.8,31.7,21.5,49.1,29.6
		c13.5,7.1,27.7,12.4,42.2,17.1c23.5,7.5,47.5,11.8,72,12.8c34.7,1.4,69.2-2.2,103.3-9.2c20-4.1,39.6-9.1,58.7-16.6
		c12.5-5,24.8-10.2,36.9-16.1c11.8-6.5,24.1-12,35.3-19.7c14.1-8.1,27.1-17.6,39.3-28.3c15.4-11.6,29.1-24.9,41-40.1
		c6.4-6.9,11.2-14.8,14.2-23.7C984.2,560.6,984.5,557.4,983,554.2z M591.4,660.2c-2.6-0.7-5.1-1.9-7.7-2.9
		c-27.4-12.5-52.5-28.7-75.3-48.3c-0.4-0.3-0.9-0.4-1.3-0.6c-8.9-8.4-17.9-16.7-26.8-25.1c-4.9-5.6-10-11.1-14.7-16.9
		c-1.6-1.9-5.1-4.7-2.6-6.9c2.7-2.4,4.7,1.7,6.4,3.5c8.3,8.5,16.3,17.3,25.7,24.6c13.1,12.4,27.2,23.5,42.3,33.2
		c13.1,10.4,27.8,18.4,42.1,27c5.8,3.5,12.4,5.6,17.5,10.2C596.3,661.7,593.6,660.8,591.4,660.2z M271.2,618.6
		c1.1,0.4,2.2,0.6,3.3,0.9c20.3,8.1,41,15.2,60.9,24.4c13.7,6.3,27.4,12.6,40.6,20c1.4,0.8,2.9,1.4,4.4,2.1
		c11.4,7.5,23.3,14.4,33.7,23.4c2.2,1.9,4.4,3.8,6.6,5.7c2.1,2.3,4.2,4.6,6.2,6.9c0.7,0.8,2,1.7,1.4,2.9c-0.5,1.1-2,0.9-3.1,1
		c-11.5,1.2-23.1,2.2-34.6,2.6c-34.2,1-68.1-0.6-101.7-8c-23-5-44.6-13.5-65.2-24.6c-11.7-6.9-22.5-15-32.9-23.7
		c-7.4-8-14.6-16.2-20-25.8c-3.1-7.5-6.2-15.1-6.6-23.4c-0.3-5.8,0.5-6.9,6.1-7.7c12.2-1.9,23.9,0.7,35.6,3.4
		C228.2,603.8,249.7,611.4,271.2,618.6z"/>
	<g>
		<path class="st2" d="M472.4,847.8c1.9-2.4,2.7-2.2,3.8,0.4c1.1,2.5,3.2,4.3,6,4.4c7.5,0.1,15,0.1,22.6,0.1c1.8,0,2.2-0.6,1.8-2.4
			c-2.7-10.5-1.5-21.2-0.9-31.7c0.3-4.6-1.1-6.9-3.7-9.6c-2.8-2.9-4.9-2.8-6.7,0.9c-0.6,1.1-0.9,3-2.6,2.2c-2.4-1.3-4.7-3-6.7-4.8
			c-1.4-1.3-0.1-3.1,0.1-4.7c0.3-3.2-0.3-6.1-3.5-9c0.5,7.8-3.1,11.7-9.4,14.5c-6.6,2.9-10.2,8.4-10.1,16c0.1,5.6,0.2,11.1-0.1,16.7
			c-0.3,4.9-2.9,6.9-7.8,6.7c-4.6-0.2-6.9-2.4-7-7c-0.2-6.5-0.7-13.2,0.1-19.6c0.7-5.4-1.4-8.5-4.8-12c-3.3-3.4-4.6-1.3-6.2,1.1
			c-1.1,1.6-0.8,3.5-0.8,5.2c0,9.5,0,19,0,28.4c0,1.2,0.5,2.7-0.8,3.6c-4.7,3.1-13.7-0.8-13.9-6.4c-0.4-8-1.1-16.2,0.3-24
			c0.8-4.7-0.9-7-3.3-9.8c-1.9-2.2-3.8-2.5-5.7-0.2c-1.6,2.1-3,2.2-5.4,1.1c-9.5-4.1-17.7-0.8-22.3,8.5c-0.9,1.9-1.9,3.8-3.1,5.5
			c-1.7,2.5-4.4,2.7-7.1,2c-2.7-0.7-4.2-2.5-4.2-5.3c0-9.5-0.1-19,0.1-28.4c0-2.7-4.8-10.4-6.9-9.8c-4.2,1.1-5,4.7-5,8.5v3
			c0,17,0,34-0.1,51c0,1.5,0.9,3.4-1.1,4.4c-4.9,2.5-12.7-0.6-13.2-6.1c-0.9-8.4-1.3-17,0.2-25.4c0.9-5.2-3.2-6.2-5.5-8.5
			c-2-2-3.6,1.1-5.1,2.3c-1.4,1.1-1.8,3.9-4.5,2c-2.4-1.7-4.4-3.2-2.9-6.8c1.2-2.9,2.5-6,0-9.1c-5,7.9-5,7.9-14.1,12.5
			c-4.6,2.3-8.5,5.5-11.1,10c-3.8,6.6-2.3,16.5,3.3,21.6c6.3,5.7,14.4,6,21.2,1.2c2-1.4,2.7-5.5,4.9-4.3c2.3,1.2,0.4,5.1,1.2,7.7
			c0.6,2-0.3,3-2.5,3c-12.9-0.1-25.8,0-38.7-0.1c-3.1,0-5.4-1.6-5.5-5c-0.1-9,0-18,0.2-27c0-2.2-4.1-8.6-6.7-9.1
			c-3.3-0.7-3.9,2.2-5,4.3c-0.6,1.1-1,2-2.5,1.6c-3.1-1-6-5.6-5.5-9c0.4-3.2,0.4-6.4-1.8-9.5c-1.5,7.4-5.8,12.2-11.6,16.1
			c-9.9,6.8-14.1,18.1-11.4,29.5c1.6,6.8,5.1,12.3,12.3,13.9c7,1.6,12.8-1.1,16.8-7.3c1.6-2.5,2.7-2.5,3.6,0.6
			c1.3,4.5,4.4,6.4,9.2,6.3c19-0.2,37.9,0.3,56.9-0.4c4.4-0.2,8.7,0.1,13.1,0.2c21.4,0.2,42.9,0.1,64.3,0.1c1.2,0,2.9,0.6,3.4-1
			c0.9-3,2.2-1.2,3.6-0.6c7.4,3.2,15.1,1,22.7,1.4c0.3,0,0.7-0.3,0.7-0.5c1.1-3.5,2.6-1.3,4.3-0.4
			C457.5,854.7,468.6,852.7,472.4,847.8z M474.3,824.7c0.4-6.6,4-10.1,10.1-9.9c5.9,0.2,8.7,3.6,9,10.3c0.3,6.8-1.1,13.7,0.9,20.4
			c0.2,0.6,0.1,1.2-0.6,1.6c-1.2,0.7-13.1,0-14.2-1c-0.3-0.3-0.4-0.8-0.6-1.4c1.8-0.8,3.4-0.3,4.7-1.3c1.6-1.5,1.9-3.2,0.5-4.7
			c-1.6-1.8-3.6-2-5.7-0.5c-1.1,0.8-1.8,2.9-3.5,1.9c-1.3-0.8-0.6-2.7-0.6-4.1C474.2,832.2,474.1,828.5,474.3,824.7z M331.1,830.2
			c-1.5-1.4-2.4-2.3-3.3-3.1c-1.8-1.6-3.8-1.7-5.8-0.3c-1.7,1.2-2.2,3-1.4,4.8c0.8,1.8,2.3,3.2,4.7,2.4c0.7-0.2,1.6-0.8,2.1,0.2
			c0.5,0.9,0.2,1.8-0.4,2.7c-2.4,3.8-8.6,4.5-12,1.3c-5.8-5.4-5-17.6,1.4-22.2c4.3-3.1,9.9-2.1,12.9,2.2
			C331.6,821.6,332.2,825.4,331.1,830.2z M267.7,830.5c-2.4-1.3-5-2-7.1,0.5c-1.3,1.5-2.4,3.3-0.9,5.2c1.8,2.3,3.9,3.1,6.1,0.7
			c2.5-2.7,3-0.6,3.1,1.3c0.2,3-0.5,5.8-4,7c-4,1.4-7.4,0.9-10-2.6c-2.5-3.4-2.6-7.3-2.4-10.9c-0.2-3.2,0-5.9,0.8-8.6
			c1.9-5.9,6.9-8.7,13-7.6c4.1,0.8,6.7,4.7,6.7,10.5c0,0.3,0,0.7,0,1C273.2,833.5,273.2,833.5,267.7,830.5z M407,847.3
			c-5.6,0-11.1,0-16.7,0c-5.2,0-10.4-0.1-15.7,0c-2.7,0.1-3.9-0.6-3.7-3.5c0.2-4.4,0.1-8.8,0.1-13.2c0-2.3,0.5-3.6,3.1-2.2
			c5.1,2.6,8.7,0.2,11.8-3.7c1.2-1.5,2.4-3.1,3.3-4.9c2.3-4.5,6-6.2,10.9-5.4c4.7,0.8,9,4.9,9.4,9.3c0.6,7.1-0.4,14.3,0.5,21.5
			C410.3,847.6,408.4,847.2,407,847.3z"/>
		<path class="st2" d="M962.7,849.4c-2.5-10.1-2-20.6-0.9-30.7c0.5-4.9-0.9-7.1-3.6-10.1c-2.6-3-4.3-1.9-6.3,0.5
			c-0.8,1-0.6,2.7-2.1,3.1c-2.1,0.5-8.3-6.1-7.9-8.2c0.9-5,0.4-6.9-3-9.7c0.2,6.8-3.1,10.9-9.2,13.6c-7,3.1-10.7,8.8-10.6,16.7
			c0.1,5.6,0,11.1,0,16.7c0,3-1.6,5.1-4.4,5.8c-3.3,0.8-6.8,0.9-10.1-0.1c-0.4-0.1-0.6-1.4-0.6-2.2c0-8.7-1-17.5,0.3-25.9
			c0.9-5.9-1.8-8.1-5.2-11.2c-2-1.8-3.6-2.3-5.1,0.3c-1.6,2.9-3.4,2.3-5.6,0.7c-2.4-1.8-5-3-8.1-3.1c-11.3-0.4-19.7,7.8-20.2,19.9
			c-0.1,3.8-0.4,7.5-1.7,11.6c3.3-0.2,5.9-0.7,7.5-2.9c1.5-2,3.3-2.8,5.7-3.3c3-0.6,4.5-1.5,2.4-5.2c-2-3.7-1.5-8,1.8-11.3
			c3-3,6.8-3.2,10.5-1.8c4.1,1.5,5.8,4.8,5.7,9.3c-0.2,7.2-0.2,14.4,0,21.6c0.1,3.3-1,4.2-4.2,4.1c-10.6-0.2-21.3-0.1-31.9-0.1
			c-7,0-10.1-2.9-10.1-10.1c-0.1-15-0.4-30.1,0.2-45.1c0.2-4.3-1-6.9-4-9.5c-3.3-2.8-5.7-2.4-7,1.8c-0.5,1.5-0.4,3.2-0.4,4.8
			c0,16.3,0,32.7,0,49c0,9.6-1.3,10.6-10.9,8.9c-0.6-0.1-1.3-0.3-1.9-0.6c-2.5-0.9-4-2.6-4-5.5c0.1-8.3,0-16.7,0.1-25
			c0-2.7-4.7-9.9-6.8-9.4c-4,1-4.8,4.5-5.2,8c-0.1,1.1,0,2.3,0,3.4c0,8.5,0,17,0,25.5c0,1.3,0.7,3-1.5,3.6c-3.7,1-8.3-1.4-8.5-5.3
			c-0.4-8.6-1.4-17.3-0.6-25.9c0.2-2.5-4.1-9.4-6.3-9.2c-3.7,0.3-4.8,3.6-5.4,6.6c-0.4,1.9-0.3,3.9-0.3,5.9c0,8-0.1,16,0.2,24
			c0.1,3.9-1.6,4.5-4.7,3.5c-3.2-1-5.5-2.9-5.5-6.6c0.1-8.5,0.2-17,0.4-25.5c0-1.8-4.1-7.9-6-7.9c-3.3-0.1-4.2,2.6-5.1,5
			c-0.3,0.9-0.5,1.9-0.5,2.9c0.1,14.9,0.1,29.7,0.4,44.6c0.1,2.5-0.7,2.8-2.6,2.8c-5.1-0.1-10.2,0.2-15.2-0.3
			c-9.4-0.9-15.6-9.7-14.1-19.5c1.5-9.7,8.8-15.3,17.9-13.8c1.4,0.2,3.2,1.6,4,0.1c0.9-1.7-0.7-3.4-1.9-4.8c-1.2-1.4-3.1-2-2.3-4.8
			c1.9-5.8,1.7-5.9-1.4-12.7c-1.7,8.3-6.8,13.7-12.4,18.8c-2.1,2-3.9,4.4-5.5,6.9c-10.4,15.7-1.7,34,17.1,35.3
			c8.5,0.6,17,0.1,25.5,0.2c2.6,0.1,3-0.9,2.3-3.2c-1.2-3.8-0.5-7.8-0.6-11.7c0-1.4,0.3-3,2.2-2c5.4,3.1,11.3,0.7,16.8,1.7
			c2.4,0.5,3-3.1,5.6-1.7c5.8,3.2,12.2,0.9,18.3,1.5c1.8,0.2,2-2.5,4.6-1.6c7.3,2.8,18.2,2.1,25.8-0.9c0.9-0.4,1.5,0.2,2.1,0.7
			c1.8,1.7,4.1,1.7,6.4,1.7c9.6,0,19.3,0.2,28.9-0.1c5.1-0.2,8.9,0.2,8.8,6.7c0,2.4,1.5,4.6,3.5,6.2c0.6,0.5,1.4,1.1,2.1,1
			c2.6-0.3,6.5-7,5.7-9.7c-0.8-2.9-0.3-4.3,3.1-4.2c3.8,0.2,7.5,0,11.3,0.1c4,0.1,7.4-1,9.6-4.7c1.4-2.3,2.6-2.9,3.9,0.1
			c1.5,3.3,4.3,4.6,7.9,4.6c6.5-0.1,13.1-0.1,19.6,0C962.6,852.8,963.4,852.3,962.7,849.4z M949.9,847.1c-1.7,1-12.8-0.3-15.4-2.3
			c3-0.8,6-0.4,7-3.5c0.6-1.8-0.9-2.8-2-3.5c-3.6-2.4-5.3,1.6-8.4,3.2c0-6.7-0.3-12.9,0.1-19c0.4-4.8,4.8-7.5,10.5-7.1
			c4.4,0.3,7.7,3.8,7.9,8.3c0.4,7.3-0.9,14.7,1,21.9C950.7,845.7,950.8,846.5,949.9,847.1z"/>
		<path class="st2" d="M138.3,852.7c1.9,0.3,2.3-3.3,4.5-1.5c2.4,1.9,5.3,1,8,1.5c6.3,1.2,12.5-1,19-0.5c16.2,1.2,32.5,0.4,48.8,0.4
			c0.3-1.7-0.9-2.3-1.4-3.3c-1.5-3.2-3.1-4.4-7-2.6c-3.8,1.8-8.4,1.2-12.5,0.2c-3.7-0.9-6.2-3.3-6.7-7.5c-0.7-5.9-0.7-11.7-0.1-17.6
			c0.4-3.5,2-6.2,5.1-7.8c4.5-2.3,9.8-1.9,13.3,1.2c3.8,3.3,4.6,8.4,2.2,14.9l-1.1,1.1l0,0c-1.8,1.1-3.5,1.1-4.9-0.6
			c0.4-1.3,2-2.4,1.1-4.1c-0.8-2.6-2.1-4-4.8-2c-4.2,3.1-2.3,5.7,0.7,8.2c2.7,2.5,5.5,2.7,8.5,0.5c8.8-5.3,10-15.6,2.1-22.5
			c-3.3-2.9-6.3-5-5.6-10.1c0.3-2.4-1.4-4.8-3.9-6.9c-0.9,7.5-4.7,12.6-10.9,16c-1.8,1-3.1,1.6-4.6-0.5c-0.9-1.3-2.5-3-4-1.8
			c-2.4,2-6.6,4.1-6.1,7.1c1.5,8,0.3,15.9,0.8,23.9c0.2,3,3.2,6.7,0.8,8.5c-2.2,1.6-6.3,0.5-9.5,0.6c-0.3,0-0.7,0-1,0
			c-4.1-0.5-6.6-2.3-6.5-6.9c0.1-7.5-0.4-15.1,0.2-22.5c0.4-4-1-6.3-3.6-8.7c-3.6-3.3-5.9-2.9-7.6,1.9c-0.5,1.5-0.6,3.2-0.6,4.8
			c-0.1,8.8,0.1,17.7-0.1,26.5c0,1.7,1.5,4.3-1.5,4.9c-2.8,0.6-5.6,0.2-7.6-2.3c-1.3-1.7-1.4-3.6-1.4-5.6c0-7.8,0-15.7,0-23.5
			c0-2.6-4.9-9.3-6.9-8.8c-3.6,0.8-4.5,3.9-4.9,7.1c-0.2,1.5-0.2,2.9-0.2,4.4c0,8,0,16-0.1,24c0,1.5,0.9,3.6-0.8,4.5
			c-1.8,1-3.8,0.1-5.6-0.9c-2.3-1.3-3.9-3.3-3.9-5.9c0-8.2-0.6-16.3,0.3-24.5c0.3-2.5-3.9-9.2-6-8.8c-3.4,0.6-4.9,3.5-5.3,6.8
			c-0.2,1.3-0.1,2.6-0.1,3.9v17.7c0,12.7,0,12.7-12.7,12c-0.3,0-0.7,0-1,0c-1.6,0.1-2.4-0.6-2.4-2.3c0.1-10,0.1-19.9,0.3-29.9
			c0.1-2.5-3.3-8.8-5.6-8.8c-3.4,0-5.1,2.6-6,5.6c-0.5,1.5-0.3,3.2-0.4,4.9c-0.3,5.6-2.1,7.5-7.1,6.6c-5-0.8-2.2-4.9-2.4-7.4
			c-0.2-2.8-3.8-9.7-6.2-9.3c-3.7,0.6-5,3.8-5.7,7.1c-0.3,1.2-0.1,2.6-0.1,3.9c0,12.1-0.1,24.2,0.1,36.3c0.1,4.3-0.2,7.6-5.9,6.9
			c-1.8-0.2-3.1,1.3-2.7,3.2c0.4,1.8,1.7,2.9,3.7,1.9c1.4-0.7,2.5-1,4.1-0.3c7.7,3.5,12.3,0.4,12.5-8.3c0.1-6.9,0.3-13.8-0.1-20.6
			c-0.3-5,0.3-7.9,6.4-8.4c3.4-0.3,3.5,0.6,3.5,3c-0.1,5.7,0.1,11.5-0.1,17.2c-0.1,3,0.8,4,3.8,3.9c9.1-0.2,18.3,0.1,27.5-0.2
			c2.8-0.1,6.3,1.8,8.2-2.1c0.1-0.2,1.3-0.2,1.7,0.1C125.9,854.7,132.3,851.8,138.3,852.7z"/>
		<path class="st2" d="M701.9,852.7c2.4,0.3,2.8-0.5,2.7-3c-0.2-11.3-0.1-22.5,0-33.8c0-2.4-4.7-9.2-6.8-8.9
			c-3.7,0.6-4.5,3.8-5.2,6.9c-0.2,1.1-0.1,2.3-0.1,3.4c0,8.5,0,17,0,25.5c0,4.7-1.4,5.7-5.9,4.3c-3.3-1-4.8-3.5-4.9-6.6
			c-0.1-8.2,0-16.3,0.1-24.5c0-2.4-4.4-9.2-6.6-8.9c-3.8,0.4-4.6,3.7-5.3,6.8c-0.3,1.2-0.1,2.6-0.1,3.9c0,8.5,0.1,17,0.1,25.5
			c0,4.4-1.2,5.2-5.2,3.7c-3-1.1-5-3.1-4.9-6.5c0.1-8.3,0.1-16.7,0.2-25c0-2-4.4-8.7-6.1-8.3c-3.4,0.8-5,3.4-5.4,6.7
			c-0.2,1.1-0.1,2.3-0.1,3.4c0,8.8,0,17.7-0.1,26.5c0,1.3,0.7,2.9-1.3,3.7c-7.7,2.9-14-1.1-14.2-9.5c-0.2-6-0.6-12.2,0.1-18.1
			c0.6-5.5-2-8.7-5.4-12.1c-2.5-2.5-3.8-1.3-5.3,0.8c-1.1,1.6-1,3.4-1,5.2v23.5c0,10.7,0,10.6-10.6,10.4c-2.7-0.1-3.7-0.8-3.7-3.6
			c0.1-17.1-0.3-34.3,0.3-51.5c0.2-4.8-1.8-7.3-4.6-10.1c-2.3-2.3-3.9-1.6-5.5,0.6c-1.3,1.7-1.2,3.6-1.2,5.6c0,9.8,0,19.6,0,29.4
			c0,10.3,0.1,20.6-0.1,30.9c-0.1,3,0.8,3.9,3.9,3.9c9.8-0.2,19.6-0.1,29.4-0.1c1.2,0,3,0.6,3.4-1c0.9-3.2,2.1-2,3.6-0.5
			c0.9,1,2.2,1.7,3.5,1.5c6.9-1.2,14.3,2.9,20.8-2.3c0.3-0.2,1.3,0.2,1.7,0.5c2.3,2.2,5.1,1.9,7.9,1.8c4.5-0.2,9.8-1.9,13.3-1.2
			C689.8,852.8,695.8,852,701.9,852.7z"/>
		<path class="st2" d="M325.1,940.7c-3.7,0.3-7.5,0-11.3,0.1c-3.4,0.1-5.9-1.2-6.6-4.6c-0.9-4.2-1.4-8.7,2.7-11.6
			c2.9-2.1,6.3-2,8.9,0.8c2.9,3.2,5.7,0.5,7.2-0.9c2.1-1.9-0.8-3.6-2.2-4.8c-5.1-4.7-11.8-5.3-17.6-1.7c-6.4,3.9-10.1,11.4-8,17.9
			c1.5,4.7-0.2,5.4-4.2,5c-2.8-0.2-5.6-0.3-8.3,0c-4.4,0.5-6.2-0.6-7-5.7c-2.3-16.5-16-23-30.8-15.4c-2.2,1.1-4,2.8-5.9,4.3
			c-0.9,0.7-1.9,1.6-3,1.2c-1.3-0.5-1-1.9-0.9-3c0.3-5-0.3-10.1,0.5-15.2c0.4-2.2,1.4-5.2-2.9-4.9c-2.9,0.2-6.2-1.2-6,4.2
			c0.4,10.1,0.1,20.3,0.1,30.4c0,2.4-0.3,4.1-3.4,4c-14.4-0.1-28.8,0.1-43.2-0.1c-5.8-0.1-7.6-2.3-7.6-8.3c0-9-0.1-18,0.1-27
			c0.1-3.2-1.7-3.6-3.9-3.2c-2.1,0.4-5.8-2-5.8,2.8c0.1,10.9-0.2,21.9,0.4,32.8c0.5,8.2,4.7,11.4,12.9,11.4c23.8,0,47.7,0,71.6,0
			c24.7,0,49.3-0.1,74,0.1c3.2,0,3.9-1.1,3.8-4C328.7,942.8,329.1,940.3,325.1,940.7z M269.7,938.8c-0.3,1.9-1.7,1.7-3,1.7
			c-4.4,0-8.8,0-13.2,0c-2.3,0-4.6,0-6.9,0c-1.8,0-3.5,0-5.3,0c-2.6,0.1-3.2-0.8-2-3.2c3.3-7.1,12.3-12.5,20-12.8
			C265.4,924.3,270.8,931.4,269.7,938.8z"/>
		<path class="st2" d="M875.2,916.8c-2.3,0.1-5.1-0.9-4.9,3.3c0.2,4.4,0.2,8.8,0,13.2c-0.2,5.5-2.1,7.3-7.4,7.4
			c-4.4,0.1-8.8,0-13.2,0c-2.4,0-3.8-0.4-3-3.3c1.4-5.5,0.4-11.1,0.9-16.6c0.3-3.9-1.7-4.1-4.7-4.1c-3.2,0-5.3,0.2-5,4.4
			c0.3,4.5,0.1,9.1-0.1,13.7c-0.1,3.9-2.1,6-6.2,5.9c-3.4-0.1-6.9-0.1-10.3,0c-2.4,0.1-3.5-0.8-3.7-3.3c-0.4-4.4-2.2-8.1-5.8-10.9
			c-8.7-6.7-25.4-4.2-27.2,11c-0.3,2.1-0.7,3.3-3.1,3.2c-12.9-0.1-25.8,0.1-38.7-0.1c-6-0.1-7.8-2.1-7.8-8.2c-0.1-9-0.2-18,0.1-27
			c0.1-3.7-2.1-3.5-4.4-3.2c-2.1,0.2-5.2-1.4-5.1,3c0.1,10.8-0.2,21.6,0.2,32.4c0.3,7.9,4.7,11.6,12.7,11.6c15,0,30.1,0.1,45.1,0
			c2.4,0,4.3,0.6,6.1,2.3c5.8,5.3,14.7,6.6,20.7,1.7c5-4.1,10-3.9,15.4-3.9c5.6,0,11.1,0,16.7,0c7.7,0,15.4,0,23.1,0
			c8.5,0,13.9-5,14.2-13.5c0.2-5.2-0.2-10.5,0.1-15.7C879.9,916.4,877.6,916.7,875.2,916.8z M801.5,948.5c-5.4,0-7.8-2.9-7.8-9.4
			c0-7,1.6-9,7.2-9c5.8-0.1,7.4,1.9,7.4,9.3C808.3,946.6,807,948.4,801.5,948.5z"/>
		<path class="st2" d="M596.3,916.8c-1.8-0.3-3.7-0.3-3.6,2.5c0.1,4.7,0.2,9.5,0,14.2c-0.2,5.2-2.2,7.1-7.3,7.1
			c-4.4,0.1-8.8-0.1-13.2,0.1c-2.9,0.1-3.8-0.8-3.1-3.7c1.2-5.6,0.5-11.4,0.8-17.1c0.2-3.8-2.4-3.2-4.6-3.1c-2.1,0.1-5.3-1.3-5.1,3
			c0.1,4.4,0.1,8.8,0,13.2c-0.1,6.2-1.4,7.6-7.5,7.6c-12.4,0-24.9,0-37.3,0c-14.9,0-29.8,0.1-44.6,0c-7.4-0.1-9.3-2.1-9.3-9.4
			c0-8.2-0.2-16.4,0.1-24.5c0.1-3.6-0.8-4.8-4.6-4.7c-3.4,0.1-4.9,0.5-4.8,4.5c0.3,9.8,0.1,19.6,0.1,29.4c0,9,4.3,13.3,13.1,13.3
			c20.3,0,40.6,0,60.8,0c20.6,0,41.2,0,61.8,0c7.4,0,12-3.6,13.4-10.9c1.2-6.4,0.6-13,0.4-19.5C601.7,915.3,598.3,917.2,596.3,916.8
			z"/>
		<path class="st2" d="M543.5,852.5c13.9,0.6,27.8,0.2,41.7,0.2c1.1,0,2.4,0.1,1.9-1.8c-2.4-10.2-0.9-20.5-1-30.7
			c0-4.8-0.8-8.6-4.8-11.4c-1.3-0.9-1.9-3.2-3.8-2.4c-1.8,0.8-3.1,2.4-3.3,4.6c-0.2,1.6-0.4,3.2-0.4,4.9c0.1,9.3,0.3,18.6,0.3,27.9
			c0,1.5,0.8,3.7-1.8,3.7c-9.8-0.2-19.7,1.2-29.3-0.8c-8.5-1.7-12.2-10.1-9.1-19c2.5-7.2,10.7-10.4,18.2-7.2c2.5,1,4.1,2.8,4.7,5.3
			c0.5,2.1,0.2,3.9-2.6,2.6c-2-0.9-3.5-0.7-4.6,1.2c-0.7,1.2-0.6,2.5,0.5,3.5c1.5,1.5,3.2,1.4,5,0.7c4.1-1.5,6.5-6.4,5.8-11.3
			c-0.6-4.3-5.4-6-6.3-9.4c-0.8-3.4,2.3-7.4-0.9-11.8c-1.4,7.1-6.7,9.5-12.2,11.8c-1.7,0.7-3.2,1.6-4.8,2.5
			c-7.3,4.3-11.2,12.6-9.7,20.3C528.3,843.8,535.8,852.1,543.5,852.5z"/>
		<path class="st2" d="M154.1,940.7c-3.4,0.2-6.9-0.1-10.3,0.1c-2.6,0.1-4.1-1.2-4.5-3.5c-0.5-2.9-0.8-6,1.8-8.1
			c2-1.6,4.7-1.7,6.3,0.2c3,3.6,5.8,1,7.3-0.7c2-2.2-0.9-4-2.4-5.3c-4.3-3.6-9.1-4.2-14.1-1.5c-5.4,3-8.4,7.7-7.9,14
			c0.2,2.8,0.7,5.5-3.5,4.8c-4-0.6-3.4,2.2-3.6,4.6c-0.2,2.8,0.5,4.2,3.7,4c4.2-0.3,8.5-0.1,12.7-0.1c4.7,0,9.5-0.2,14.2,0.1
			c3.3,0.2,3.4-1.7,3.2-4C157,943.2,158,940.5,154.1,940.7z"/>
		<path class="st2" d="M437.9,940.6c-2.2,0.3-4.6,0-6.9,0.1c-2.4,0.1-5,0-5.4-2.9c-0.5-2.9-1.6-6.5,1.5-8.6c2.2-1.5,4.8-1.4,7.1,0.9
			c2.6,2.6,4.9-0.4,6.8-1.5c2-1.2-0.3-2.8-1.3-3.9c-4.1-4.6-9.2-5.7-14.5-3.3c-5.9,2.6-9.6,8.6-8.7,15c0.4,3.1,0.4,4.8-3.3,4.3
			c-4-0.6-3.3,2.3-3.5,4.7c-0.2,2.9,0.7,4.1,3.8,3.9c4.2-0.2,8.5-0.1,12.7-0.1c4.4,0,8.8-0.1,13.2,0c2.6,0.1,3.3-0.9,3.4-3.4
			C443.2,942.1,442.3,940,437.9,940.6z"/>
		<path class="st2" d="M711.6,940.7c-2.4,0.3-4.9-0.1-7.3,0.1c-2.7,0.1-5.2-0.2-5.6-3.3c-0.4-3-1.2-6.5,2-8.5c2.4-1.5,4.7-1.1,7,1.2
			c2.3,2.4,4.6-0.1,6.3-1.3c2.5-1.7-0.1-3.2-1-4.3c-3.4-4.1-9.3-5.4-14.2-3.4c-5.8,2.4-9.9,8.5-9,14.8c0.5,3.8-0.4,5-4.2,4.7
			c-4-0.4-2.5,2.8-2.8,4.8c-0.3,2.1-0.1,3.9,2.9,3.7c4.6-0.2,9.1-0.1,13.7-0.1c4.1,0,8.2-0.1,12.2,0c3,0.1,4.8-0.2,4.8-4.1
			C716.3,941.4,715.1,940.3,711.6,940.7z"/>
		<path class="st2" d="M893.2,902.2c-2.3,0-4.9-0.7-4.8,3.4c0.2,13.4,0.2,26.8,0,40.2c-0.1,4,2.2,3.5,4.7,3.5c2.4-0.1,5,0.7,4.8-3.4
			c-0.2-6.7-0.1-13.4-0.1-20.1c0-6.7-0.2-13.4,0.1-20.1C898.1,901.7,895.7,902.1,893.2,902.2z"/>
		<path class="st2" d="M655.4,930c-9.9,0.2-19.9,0.2-29.9,0c-3.6-0.1-2.8,2.2-2.9,4.2c-0.2,2.3,0.2,3.7,3.1,3.6
			c4.9-0.2,9.8-0.1,14.7-0.1c4.9,0,9.8-0.2,14.7,0.1c3,0.1,3.6-1.1,3.5-3.7C658.4,931.9,658.8,929.9,655.4,930z"/>
		<path class="st2" d="M382.1,930c-9.6,0.2-19.3,0.2-28.9,0c-3.1-0.1-3.3,1.4-3.4,3.8c-0.1,2.8,0.4,4.2,3.7,4
			c4.7-0.3,9.5-0.1,14.2-0.1c4.7,0,9.5-0.1,14.2,0.1c2.8,0.1,3.8-0.7,3.6-3.6C385.4,931.8,385.6,929.9,382.1,930z"/>
		<path class="st2" d="M335.5,791.1c2.9,0.4,6.9-3.5,6.5-6.5c-0.4-3.7-2.8-5.6-5.9-6.3c-3.4,0-6.9,3.3-6.7,6.3
			C329.6,788.4,332,790.6,335.5,791.1z"/>
		<path class="st2" d="M442.2,792.4c3.9-0.3,6-2.6,6.5-6.2c0.4-3-2.9-6.4-6-6.6c-3.2-0.2-6.4,2.9-6.3,6.1
			C436.5,789.6,438.7,791.7,442.2,792.4z"/>
		<path class="st2" d="M317.7,791c3.7-0.6,5.6-2.9,5.9-6.6c-0.6-3.8-2.9-5.8-6.5-6c-3.3-0.2-6.3,3.4-6.1,6.9
			C311.3,788.3,314.8,791.5,317.7,791z"/>
		<path class="st2" d="M256,791.3c3.4-0.1,5.6-2.1,6.3-5c0.3-3.6-2.6-7.2-5.8-7.1c-3.5,0.1-5.7,2.1-6.3,5.6
			C249.8,787.6,253,791.4,256,791.3z"/>
		<path class="st2" d="M271.7,791.3c3.3-0.3,5.3-2.4,5.8-5.6c0.5-2.9-3-6.7-6-6.5c-3.6,0.2-5.5,2.3-6,5.6
			C265.5,788.2,268.7,791.6,271.7,791.3z"/>
		<path class="st2" d="M878.3,857.1c-3.1,0.1-5.2,2.2-5.2,5.4c0,3.5,2.1,5.3,5.7,5.6c3.2-0.5,5.5-2.1,5.4-5.7
			C884,858.8,881.5,857,878.3,857.1z"/>
		<path class="st2" d="M675.3,789.9c2.6,0,5.1-1.9,5.1-4.9c0-3.2-2.1-5.2-5.2-5.1c-2.9,0.1-4.5,2.3-5,5
			C670.7,787.8,672.6,789.9,675.3,789.9z"/>
		<path class="st2" d="M678.1,797.3c-0.1,3.1,2.1,4.8,4.9,5c3,0.2,4.7-1.8,5.3-4.9c-0.6-2.6-1.7-4.9-4.8-5.1
			C680.1,792.2,678.2,794.2,678.1,797.3z"/>
		<path class="st2" d="M91.1,858.5c-2.9,0.2-5,2.3-4.8,5.2c0.2,2.8,2.3,5,5.2,4.8c3-0.1,4.4-2.5,4.9-5.2
			C95.7,860.5,94.1,858.3,91.1,858.5z"/>
		<path class="st2" d="M668.3,802.6c3.1,0.3,5.1-1.8,5.3-4.6c0.3-3.1-1.9-4.9-4.8-5.7c-3.1,0.3-5.1,2.3-5.2,5
			C663.4,800.1,665.4,802.3,668.3,802.6z"/>
		<path class="st2" d="M78,858.9c-2.8,0-4.5,2.1-4.6,4.7c-0.1,3,1.9,4.6,4.7,5.1c3.3-0.2,5-2.1,5-5C83,860.7,81,858.8,78,858.9z"/>
		<path class="st2" d="M632.9,863.1c-0.4-2.8-2.2-4.6-4.8-4.7c-3-0.1-4.8,2.2-4.7,5.1c0.1,2.8,2,4.4,4.8,4.3
			C631.1,867.7,632.4,865.8,632.9,863.1z"/>
		<path class="st2" d="M556.2,858.6c-2.6,0.2-4.6,2.1-4.4,4.9c0.3,2.6,2,4.4,5.3,4.4c2.6-0.4,4.1-2.3,4-5
			C561,860.1,558.9,858.4,556.2,858.6z"/>
		<path class="st2" d="M842.4,909.4c2.8,0,4-0.6,4-3.7c0-3.3-1.5-3.9-4.5-3.4c-2.9-0.9-3.4,0.7-3.6,3.5
			C838.2,909.1,839.8,909.4,842.4,909.4z"/>
		<path class="st2" d="M597.2,954.7c-2.9-0.1-3.9,0.6-3.9,3.7c0,3.3,1.4,3.9,4.1,3.4c2.9,0.6,3.8-0.5,3.9-3.6
			C601.4,954.9,599.9,954.7,597.2,954.7z"/>
		<path class="st2" d="M875,909.2c2.6,0.5,3.9-0.3,4-3.5c0.2-4-2.2-3.3-4.7-3.5c-3-0.3-3.9,0.8-3.9,3.8
			C870.4,909.5,872.5,909.4,875,909.2z"/>
		<path class="st2" d="M564.9,909.3c2.9,0.2,3.9-0.8,3.9-3.8c0.1-3.6-2-3.5-4.8-3.2c-2.9-0.9-3.3,0.9-3.4,3.7
			C560.5,909.5,562.5,909.1,564.9,909.3z"/>
		<path class="st2" d="M828.2,909.3c2.3-0.2,4.1-0.1,4-3.3c0-2.9-0.8-4.4-3.8-3.7c-2.5-0.3-4.1,0-4.1,3.2
			C824.4,908.3,825.2,909.5,828.2,909.3z"/>
	</g>
</g>
</svg>
