<?xml version="1.0" encoding="utf-8"?>
<!-- Generator: Adobe Illustrator 25.0.0, SVG Export Plug-In . SVG Version: 6.00 Build 0)  -->
<svg version="1.1" id="Layer_1" xmlns="http://www.w3.org/2000/svg" xmlns:xlink="http://www.w3.org/1999/xlink" x="0px" y="0px"
	 viewBox="0 0 1000 1000" style="enable-background:new 0 0 1000 1000;" xml:space="preserve">
<style type="text/css">
	.st0{filter:url(#Adobe_OpacityMaskFilter);}
	.st1{fill:url(#SVGID_2_);}
	.st2{mask:url(#SVGID_1_);fill:#FFFFFF;}
	.st3{filter:url(#Adobe_OpacityMaskFilter_1_);}
	.st4{fill:url(#SVGID_4_);}
	.st5{mask:url(#SVGID_3_);fill:#FFFFFF;}
	.st6{filter:url(#Adobe_OpacityMaskFilter_2_);}
	.st7{fill:url(#SVGID_6_);}
	.st8{mask:url(#SVGID_5_);fill:#FFFFFF;}
	.st9{fill:url(#SVGID_7_);stroke:#98002E;}
	.st10{fill:#ED1C24;}
	.st11{fill:#FFFFFF;}
	.st12{opacity:0.38;fill:#FFFFFF;}
	.st13{filter:url(#Adobe_OpacityMaskFilter_3_);}
	.st14{fill:url(#SVGID_9_);}
	.st15{mask:url(#SVGID_8_);fill:#FFFFFF;}
	.st16{fill:url(#SVGID_10_);stroke:#98002E;}
	.st17{filter:url(#Adobe_OpacityMaskFilter_4_);}
	.st18{fill:url(#SVGID_12_);}
	.st19{mask:url(#SVGID_11_);fill:#FFFFFF;}
</style>
<g>
	<path d="M85.7,331.9c471-285.4,400,150.5,517.3,174.6c115.3,35.2,266.5-203.9,301.6,91.2c21.5,23.5,26.2-16.4,21.5-68.4
		c-39.1-322.5-199.4-46.9-297.1-91.9c-74.3-41-86-433.9-502.3-177.9C59,307.8,66.2,328,85.7,331.9z"/>
	<defs>
		<filter id="Adobe_OpacityMaskFilter" filterUnits="userSpaceOnUse" x="77" y="179" width="459.8" height="301">
			
				<feColorMatrix  type="matrix" values="-1 0 0 0 1  0 -1 0 0 1  0 0 -1 0 1  0 0 0 1 0" color-interpolation-filters="sRGB" result="source"/>
		</filter>
	</defs>
	<mask maskUnits="userSpaceOnUse" x="77" y="179" width="459.8" height="301" id="SVGID_1_">
		<g class="st0">
			<linearGradient id="SVGID_2_" gradientUnits="userSpaceOnUse" x1="235.1594" y1="169.9848" x2="257.962" y2="235.1328">
				<stop  offset="0" style="stop-color:#000000"/>
				<stop  offset="1" style="stop-color:#FFFFFF"/>
			</linearGradient>
			<path class="st1" d="M530.3,268.7c107.7,115-86.4,126.7-216.9,150.2C182.9,442.4-3.3,502.4,57.7,353.7
				C47,294.2,158.5,173,289,149.5C419.5,126,519.6,209.2,530.3,268.7z"/>
		</g>
	</mask>
	<path class="st2" d="M535.5,297.5c13.6,75.4-81.2,155.6-211.7,179.1C193.3,500.1,94.1,396.9,77.2,322.2
		C71.4,296.1,184.5,207.5,315,184C445.5,160.6,521.9,222.1,535.5,297.5z"/>
	<defs>
		<filter id="Adobe_OpacityMaskFilter_1_" filterUnits="userSpaceOnUse" x="484.4" y="289.1" width="405.9" height="217.3">
			
				<feColorMatrix  type="matrix" values="-1 0 0 0 1  0 -1 0 0 1  0 0 -1 0 1  0 0 0 1 0" color-interpolation-filters="sRGB" result="source"/>
		</filter>
	</defs>
	<mask maskUnits="userSpaceOnUse" x="484.4" y="289.1" width="405.9" height="217.3" id="SVGID_3_">
		<g class="st3">
			<linearGradient id="SVGID_4_" gradientUnits="userSpaceOnUse" x1="692.8889" y1="512.6152" x2="682.4648" y2="450.0785">
				<stop  offset="0" style="stop-color:#000000"/>
				<stop  offset="1" style="stop-color:#FFFFFF"/>
			</linearGradient>
			<path class="st4" d="M429.4,405.2c-101.6-120.5,92.9-122,224.4-138.7c131.5-16.7,320.6-66.9,251.9,78.4
				c7.6,60-110,175.2-241.5,191.9C532.7,553.4,437,465.1,429.4,405.2z"/>
		</g>
	</mask>
	<path class="st5" d="M484.4,303.3c99.7-73,48.9,160.6,180.5,144c102.3-30,182.4-117.3,225.4-37.1
		c-121.8-0.7-175.9,104.2-269.7,95.8C552.2,510.4,519.6,349.5,484.4,303.3z"/>
	<defs>
		<filter id="Adobe_OpacityMaskFilter_2_" filterUnits="userSpaceOnUse" x="782.3" y="376.4" width="142.5" height="255.2">
			
				<feColorMatrix  type="matrix" values="-1 0 0 0 1  0 -1 0 0 1  0 0 -1 0 1  0 0 0 1 0" color-interpolation-filters="sRGB" result="source"/>
		</filter>
	</defs>
	<mask maskUnits="userSpaceOnUse" x="782.3" y="376.4" width="142.5" height="255.2" id="SVGID_5_">
		<g class="st6">
			
				<linearGradient id="SVGID_6_" gradientUnits="userSpaceOnUse" x1="627.0414" y1="229.8039" x2="637.4608" y2="259.5724" gradientTransform="matrix(8.170000e-02 1.2146 -1.0078 -3.600000e-03 1103.8688 -296.2992)">
				<stop  offset="0" style="stop-color:#000000"/>
				<stop  offset="1" style="stop-color:#FFFFFF"/>
			</linearGradient>
			<path class="st7" d="M889.1,628.1c-49,59.6-61.6-48.2-77.3-120.6c-15.7-72.5-50.3-175.9,20.5-141.8c27-5.8,87,56.2,102.7,128.7
				C950.6,566.9,916.1,622.3,889.1,628.1z"/>
		</g>
	</mask>
	<path class="st8" d="M876,631c-34.2,7.4-74.7-45.3-90.4-117.8c-15.7-72.5,27.1-140.7,61.9-136.6c40.8,4.9,56.8,59.7,72.5,132.2
		C935.7,581.3,910.2,623.6,876,631z"/>
	<g>
		
			<linearGradient id="SVGID_7_" gradientUnits="userSpaceOnUse" x1="293.8343" y1="608.3672" x2="700.3604" y2="608.3672" gradientTransform="matrix(0.6356 0.772 -0.772 0.6356 434.5687 -222.8317)">
			<stop  offset="0" style="stop-color:#ED1C24"/>
			<stop  offset="1" style="stop-color:#942923"/>
		</linearGradient>
		<path class="st9" d="M410.1,704.5c-86.7,71.4-214.8,58.9-286.1-27.7C52.6,590.1,65,462,151.7,390.7
			c86.7-71.4,214.8-58.9,286.1,27.7C509.1,505.1,496.7,633.2,410.1,704.5z"/>
		<path class="st10" d="M467.2,547.6c0,102.9-83.4,186.3-186.3,186.3c-102.9,0-186.3-83.4-186.3-186.3
			c0-102.9,83.4-186.3,186.3-186.3C383.8,361.3,467.2,444.7,467.2,547.6z"/>
		<path d="M419,547.6c0,76.3-61.8,138.1-138.1,138.1c-76.3,0-138.1-61.8-138.1-138.1c0-76.3,61.8-138.1,138.1-138.1
			C357.1,409.5,419,471.3,419,547.6z"/>
		<path class="st11" d="M291.8,459.3c0,32.7-26.5,59.3-59.3,59.3c-32.7,0-59.3-26.5-59.3-59.3c0-32.7,26.5-59.3,59.3-59.3
			C265.2,400,291.8,426.5,291.8,459.3z"/>
		<path class="st12" d="M466.1,546.6c0,102.5-83.2,185.6-185.9,185.6c-102.7,0-185.9-83.1-185.9-185.6c13-28.2-8.7,58.6,93.9,58.6
			C290.9,605.2,350.9,457.8,466.1,546.6z"/>
		<defs>
			<filter id="Adobe_OpacityMaskFilter_3_" filterUnits="userSpaceOnUse" x="113.2" y="380.5" width="287.7" height="289.8">
				
					<feColorMatrix  type="matrix" values="-1 0 0 0 1  0 -1 0 0 1  0 0 -1 0 1  0 0 0 1 0" color-interpolation-filters="sRGB" result="source"/>
			</filter>
		</defs>
		<mask maskUnits="userSpaceOnUse" x="113.2" y="380.5" width="287.7" height="289.8" id="SVGID_8_">
			<g class="st13">
				<linearGradient id="SVGID_9_" gradientUnits="userSpaceOnUse" x1="127.9546" y1="397.2017" x2="253.7817" y2="520.6115">
					<stop  offset="0" style="stop-color:#000000"/>
					<stop  offset="1" style="stop-color:#FFFFFF"/>
				</linearGradient>
				<path class="st14" d="M334.6,394.6c134.6,49,37.4,123.1-17.5,184.5c-54.9,61.4-115.7,168.7-181.4,37.9
					c-45.3-40.5-37.4-123.1,17.5-184.5C208.1,371.1,289.3,354.1,334.6,394.6z"/>
			</g>
		</mask>
		<path class="st15" d="M356.5,414.2c57.4,51.3,59.3,142.7,4.4,204.1c-54.9,61.4-146,69.6-203.4,18.2
			c-57.4-51.3-59.3-142.7-4.4-204.1C208.1,371.1,299.2,362.9,356.5,414.2z"/>
	</g>
	<g>
		
			<linearGradient id="SVGID_10_" gradientUnits="userSpaceOnUse" x1="757.0104" y1="339.0519" x2="1038.4598" y2="339.0519" gradientTransform="matrix(0.6356 0.772 -0.772 0.6356 434.5687 -222.8317)">
			<stop  offset="0" style="stop-color:#ED1C24"/>
			<stop  offset="1" style="stop-color:#942923"/>
		</linearGradient>
		<path class="st16" d="M832.9,794.4c-60,49.4-148.7,40.8-198.1-19.2c-49.4-60-40.8-148.7,19.2-198.1c60-49.4,148.7-40.8,198.1,19.2
			C901.5,656.3,892.9,745,832.9,794.4z"/>
		<path class="st10" d="M872.4,685.7c0,71.2-57.7,129-129,129c-71.2,0-129-57.8-129-129c0-71.2,57.8-129,129-129
			C814.7,556.7,872.4,614.5,872.4,685.7z"/>
		<path d="M839,685.7c0,52.8-42.8,95.6-95.6,95.6c-52.8,0-95.6-42.8-95.6-95.6c0-52.8,42.8-95.6,95.6-95.6
			C796.2,590.1,839,632.9,839,685.7z"/>
		<path class="st11" d="M751,624.6c0,22.7-18.4,41-41,41c-22.7,0-41-18.4-41-41c0-22.7,18.4-41.1,41-41.1
			C732.6,583.5,751,601.9,751,624.6z"/>
		<path class="st12" d="M871.6,685c0,71-57.6,128.5-128.7,128.5c-71.1,0-128.7-57.5-128.7-128.5c9-19.5-6,40.6,65,40.6
			C750.4,725.6,791.9,623.6,871.6,685z"/>
		<defs>
			<filter id="Adobe_OpacityMaskFilter_4_" filterUnits="userSpaceOnUse" x="627.4" y="570" width="199.1" height="200.7">
				
					<feColorMatrix  type="matrix" values="-1 0 0 0 1  0 -1 0 0 1  0 0 -1 0 1  0 0 0 1 0" color-interpolation-filters="sRGB" result="source"/>
			</filter>
		</defs>
		<mask maskUnits="userSpaceOnUse" x="627.4" y="570" width="199.1" height="200.7" id="SVGID_11_">
			<g class="st17">
				<linearGradient id="SVGID_12_" gradientUnits="userSpaceOnUse" x1="637.5648" y1="581.5959" x2="724.6772" y2="667.0348">
					<stop  offset="0" style="stop-color:#000000"/>
					<stop  offset="1" style="stop-color:#FFFFFF"/>
				</linearGradient>
				<path class="st18" d="M780.6,579.8c93.2,33.9,25.9,85.2-12.1,127.7c-38,42.5-80.1,116.8-125.6,26.2
					c-31.3-28-25.9-85.2,12.1-127.7C693,563.5,749.3,551.8,780.6,579.8z"/>
			</g>
		</mask>
		<path class="st19" d="M795.8,593.4c39.7,35.5,41.1,98.8,3.1,141.3c-38,42.5-101.1,48.2-140.8,12.6C618.4,711.8,617,648.5,655,606
			C693,563.5,756.1,557.9,795.8,593.4z"/>
	</g>
</g>
</svg>
